<?xml version="1.0" encoding="UTF-8"?>
<svg clip-rule="evenodd" fill-rule="nonzero" stroke-linejoin="round" stroke-miterlimit="2" version="1.1" viewBox="0 0 1e3 474" xmlns="http://www.w3.org/2000/svg" xmlns:cc="http://creativecommons.org/ns#" xmlns:dc="http://purl.org/dc/elements/1.1/" xmlns:rdf="http://www.w3.org/1999/02/22-rdf-syntax-ns#">
 <g fill="#48f7a7" stroke-width="125.53">
  <path d="m521.81 154.08c25.985 0 47.074-21.089 47.074-47.075v-3.5149h-47.074v16.57h18.202c-3.8915 5.649-10.796 9.2896-18.202 9.2896-11.549 0-22.219-9.4151-22.219-22.345 0-12.93 10.419-22.345 22.219-22.345 6.4021 0 11.674 2.5106 15.691 6.2766l17.449-17.324c-8.5361-8.4105-20.21-13.683-33.14-13.683-25.985 0-46.949 21.089-46.949 47.075 0 25.985 20.964 47.075 46.949 47.075z"/>
  <path d="m609.18 155.34c16.696 0 30.253-13.432 30.253-30.128 0-16.57-13.557-30.128-30.253-30.128s-30.253 13.557-30.253 30.128c0 16.696 13.557 30.128 30.253 30.128zm0.12553-18.83c-6.5276 0-11.423-5.1469-11.423-11.298 0-6.0256 4.7702-11.172 11.423-11.172 6.151 0 11.047 5.1469 11.047 11.172 0 6.1511-4.8957 11.298-11.047 11.298z"/>
  <path d="m679.73 155.34c16.696 0 30.253-13.432 30.253-30.128 0-16.57-13.557-30.128-30.253-30.128s-30.253 13.557-30.253 30.128c0 16.696 13.557 30.128 30.253 30.128zm0.12553-18.83c-6.5276 0-11.423-5.1469-11.423-11.298 0-6.0256 4.7702-11.172 11.423-11.172 6.151 0 11.047 5.1469 11.047 11.172 0 6.1511-4.8957 11.298-11.047 11.298z"/>
  <path d="m750.15 155.34c6.0255 0 10.545-2.0085 14.938-4.7703v3.5149h20.085v-94.275h-20.085v39.542c-4.3936-2.6362-9.6659-4.2681-14.938-4.2681-16.445 0-30.127 12.679-30.127 29.751 0 18.328 14.687 30.504 30.127 30.504zm-0.12553-18.83c-6.151 0-11.047-5.1469-11.047-11.298 0-6.0256 4.8957-11.172 11.047-11.172 6.6531 0 11.423 5.1469 11.423 11.172 0 6.1511-4.8957 11.298-11.423 11.298z"/>
  <path d="m474.86 283.34h24.604l5.6489-12.302h38.538l5.7744 12.302h24.73l-44.312-94.151h-11.047zm39.919-33.14 9.6659-20.713 9.5404 20.713z"/>
  <path d="m585.46 283.34h20.085v-28.998c0-6.5276 4.8957-11.172 10.796-11.172 2.7617 0 5.7744 0.87875 8.285 3.2638l13.432-13.055c-5.3978-5.5235-12.804-9.0381-21.089-9.0381-4.7702 0-8.9127 1.1298-11.423 2.1341v-0.87875h-20.085z"/>
  <path d="m671.32 284.6c6.0255 0 10.545-2.0085 14.938-4.7703v3.5149h20.085v-94.275h-20.085v39.542c-4.3936-2.6362-9.6659-4.2681-14.938-4.2681-16.445 0-30.127 12.679-30.127 29.751 0 18.328 14.687 30.504 30.127 30.504zm-0.12553-18.83c-6.151 0-11.047-5.1469-11.047-11.298 0-6.0256 4.8957-11.172 11.047-11.172 6.6531 0 11.423 5.1469 11.423 11.172 0 6.1511-4.8957 11.298-11.423 11.298z"/>
  <path d="m749.9 284.6c3.3893 0 6.5276-0.75318 9.1638-1.7575v0.3766h20.085v-57.745h-20.085v31.383c0 5.0214-3.8915 8.9126-9.5404 8.9126-4.268 0-8.034-3.5149-8.034-8.9126v-31.383h-18.83v31.383c0 16.068 12.93 27.743 27.24 27.743z"/>
  <path d="m807.39 219.7c5.0212 0 9.1638-4.2681 9.1638-9.2896 0-5.0214-4.1425-9.2896-9.1638-9.2896-5.1468 0-9.2893 4.2681-9.2893 9.2896 0 5.0214 4.1425 9.2896 9.2893 9.2896zm-10.67 63.647h20.085v-57.745h-20.085z"/>
  <path d="m834.38 283.34h20.085v-31.383c0-5.0214 3.8915-8.9126 9.5404-8.9126 4.2681 0 8.034 3.5149 8.034 8.9126v31.383h18.83v-31.383c0-16.068-12.93-27.743-27.24-27.743-3.3893 0-6.5276 0.75318-9.1638 1.7575v-0.3766h-20.085z"/>
  <path d="m934.31 284.6c16.696 0 30.253-13.432 30.253-30.128 0-16.57-13.557-30.128-30.253-30.128s-30.253 13.557-30.253 30.128c0 16.696 13.557 30.128 30.253 30.128zm0.12553-18.83c-6.5276 0-11.423-5.1469-11.423-11.298 0-6.0256 4.7702-11.172 11.423-11.172 6.151 0 11.047 5.1469 11.047 11.172 0 6.1511-4.8957 11.298-11.047 11.298z"/>
  <path d="m521.94 412.6c12.176 0 24.604-5.1469 33.391-13.934l-17.574-17.324c-3.8915 4.0171-9.4148 6.2766-15.817 6.2766-12.804 0-22.093-9.2896-22.093-22.094s9.2893-22.094 22.093-22.094c6.2765 0 11.674 2.1341 15.817 6.1511l17.323-17.449c-8.5361-8.536-20.21-13.683-33.14-13.683-25.985 0-47.074 21.089-47.074 47.075 0 25.985 21.089 47.075 47.074 47.075z"/>
  <path d="m594.37 413.86c16.696 0 30.253-13.432 30.253-30.128 0-16.57-13.557-30.128-30.253-30.128s-30.253 13.557-30.253 30.128c0 16.696 13.557 30.128 30.253 30.128zm0.12553-18.83c-6.5276 0-11.423-5.1469-11.423-11.298 0-6.0256 4.7702-11.172 11.423-11.172 6.151 0 11.047 5.1469 11.047 11.172 0 6.1511-4.8957 11.298-11.047 11.298z"/>
  <path d="m664.79 413.86c6.0255 0 10.545-2.0085 14.938-4.7703v3.5149h20.085v-94.275h-20.085v39.542c-4.3936-2.6362-9.6659-4.2681-14.938-4.2681-16.445 0-30.127 12.679-30.127 29.751 0 18.328 14.687 30.504 30.127 30.504zm-0.12552-18.83c-6.151 0-11.047-5.1469-11.047-11.298 0-6.0256 4.8957-11.172 11.047-11.172 6.6531 0 11.423 5.1469 11.423 11.172 0 6.1511-4.8957 11.298-11.423 11.298z"/>
  <path d="m744.51 413.86c6.9042 0 13.306-2.3851 18.579-6.1511l-11.925-11.926c-1.883 1.1298-4.268 1.7575-6.6531 1.7575-5.5234 0-10.294-3.2638-12.553-7.7829h41.927c0.37659-2.0085 0.50212-4.0171 0.50212-6.0256 0-16.696-12.93-30.128-29.876-30.128-16.821 0-30.253 13.432-30.253 30.128 0 16.821 13.432 30.128 30.253 30.128zm-12.679-35.902c2.2596-4.6447 7.0297-7.9084 12.679-7.9084 5.5234 0 10.042 3.2638 12.051 7.9084z"/>
 </g>
 <g>
  <path d="m200.98 317.61c-0.47451 1.5842-0.17324 3.299 0.81344 4.6271 0.98667 1.3256 2.5433 2.1064 4.1978 2.1064h16.628c2.3098 0 4.3459-1.5139 5.0112-3.7258l57.184-190.54c0.47451-1.5842 0.17324-3.299-0.81344-4.6271-0.98667-1.3256-2.5432-2.1064-4.1978-2.1064h-16.628c-2.3098 0-4.3459 1.5139-5.0112 3.7258z" fill="#48f7a7" stroke-width="2.5106"/>
  <path d="m224.48 321.42c0.47451 0.68976 0.17324 1.4364-0.81344 2.0147-0.98667 0.57722-2.5433 0.91717-4.1978 0.91717h-16.628c-2.3098 0-4.3459-0.65916-5.0112-1.6222l-57.184-82.963c-0.47451-0.68975-0.17324-1.4364 0.81344-2.0147 0.98667-0.57716 2.5432-0.91716 4.1978-0.91716h16.628c2.3098 0 4.3459 0.65916 5.0112 1.6222z" fill="#48f7a7" stroke-width="1.6566"/>
  <path d="m35.376 226.74h6.5919c13.733 0 20.325-7.1415 20.325-21.424 0-6.0426-0.54932-12.36-1.9226-18.952l-2.472-11.536c-1.648-7.6905-2.7466-15.107-2.7466-22.523 0-11.81 4.3946-21.424 12.909-28.84 8.5145-7.4158 20.325-11.536 35.157-12.36v19.776h-3.5706c-6.3172 0-11.261 1.648-15.381 4.9442-3.8453 3.0213-6.0426 7.1415-6.0426 11.81 0 2.1973 0.82399 6.3173 1.9226 12.635l2.1973 13.733c1.0986 5.7679 1.3733 12.909 1.3733 21.149 0 16.755-6.3172 30.488-19.501 41.749 13.184 10.987 19.501 24.995 19.501 41.749 0 8.24-0.27466 15.107-1.3733 21.149l-2.1973 13.458c-1.0987 6.3173-1.9226 10.712-1.9226 12.909 0 4.6693 2.1973 8.5147 6.3172 11.81 3.8453 3.0213 9.0639 4.6693 15.106 4.6693h3.5706v20.05c-14.832-1.0987-26.642-5.2184-35.157-12.635-8.5145-7.1415-12.909-17.029-12.909-28.84 0-7.4158 1.0987-14.832 2.7466-22.248l2.472-11.81c1.3733-6.3173 1.9226-12.635 1.9226-18.952 0-14.283-6.5919-21.424-20.325-21.424h-6.5919z" fill="#00ffc3" stroke-width="274.66"/>
  <path d="m409.29 226.74h-6.3172c-13.733 0-20.6-7.1415-20.6-21.424 0-6.0426 0.82398-12.36 2.1973-18.952l2.472-11.536c1.648-7.6905 2.472-15.107 2.472-22.523 0-11.81-4.1199-21.424-12.634-28.84-8.7892-7.4158-20.325-11.536-35.431-12.36v19.776h3.8453c6.0426 0 11.261 1.648 15.106 4.9442 4.1199 3.0213 6.0426 7.1415 6.0426 11.81 0 2.1973-0.54933 6.3173-1.648 12.635l-2.1973 13.733c-1.0986 5.7679-1.648 12.909-1.648 21.149 0 16.755 6.5919 30.488 19.776 41.749-13.184 10.987-19.776 24.995-19.776 41.749 0 8.24 0.54933 15.107 1.648 21.149l2.1973 13.458c1.0986 6.3173 1.648 10.712 1.648 12.909 0 4.6693-1.9226 8.5147-6.0426 11.81-4.1199 3.0213-9.0639 4.6693-15.106 4.6693h-3.8453v20.05c15.106-1.0987 26.917-5.2184 35.431-12.635 8.5145-7.1415 12.634-17.029 12.634-28.84 0-7.4158-0.82399-14.832-2.472-22.248l-2.472-11.81c-1.3733-6.3173-2.1973-12.635-2.1973-18.952 0-14.283 6.8666-21.424 20.6-21.424h6.3172z" fill="#00ffc3" stroke-width="274.66"/>
 </g>
</svg>
